classDiagram
    
    class Carro{
      +Number id
      +String placa
      +String cor
      +String marca
      +String modelo
      +String ano
      +String KmRodado
      +String renavan
      +void alterar()
      +void cadastrar()
      +void deletar()
    }

    class Motorista {
        +Number id
        +String nomeCompleto
        +String idade
        +String sexo
        +String CPF
        +String CNH
        +void alterar()
        +void cadastrar()
        +void deletar()
    }

    class EmpresaTerceira {
        +String telefone
        +String contactar()
        +void cadastrar()
        +void deletar()
    }

    class Localizacao {
        +Number longitude
        +Number latitude
    }

    Motorista --> Carro
    Carro --> EmpresaTerceira
    Localizacao --> Carro